<mxfile host="app.diagrams.net" agent="Mozilla/5.0 (X11; Ubuntu; Linux x86_64; rv:129.0) Gecko/20100101 Firefox/129.0" version="24.7.8">
  <diagram name="Page-1" id="DkkqO1HHNTkg7KhhaJUi">
    <mxGraphModel dx="1140" dy="658" grid="1" gridSize="10" guides="1" tooltips="1" connect="1" arrows="1" fold="1" page="1" pageScale="1" pageWidth="850" pageHeight="1100" math="0" shadow="0">
      <root>
        <mxCell id="0" />
        <mxCell id="1" parent="0" />
        <mxCell id="9KElYsGexBoUN2LWAdsH-1" value="provincia" style="swimlane;fontStyle=0;childLayout=stackLayout;horizontal=1;startSize=30;horizontalStack=0;resizeParent=1;resizeParentMax=0;resizeLast=0;collapsible=1;marginBottom=0;whiteSpace=wrap;html=1;" vertex="1" parent="1">
          <mxGeometry x="50" y="60" width="160" height="90" as="geometry" />
        </mxCell>
        <mxCell id="9KElYsGexBoUN2LWAdsH-2" value="&lt;u&gt;codigoProvincia&amp;nbsp;&amp;nbsp;&amp;nbsp;&amp;nbsp;&amp;nbsp;&amp;nbsp; &amp;lt;pk&amp;gt;&lt;/u&gt;" style="text;strokeColor=none;fillColor=none;align=left;verticalAlign=middle;spacingLeft=4;spacingRight=4;overflow=hidden;points=[[0,0.5],[1,0.5]];portConstraint=eastwest;rotatable=0;whiteSpace=wrap;html=1;" vertex="1" parent="9KElYsGexBoUN2LWAdsH-1">
          <mxGeometry y="30" width="160" height="30" as="geometry" />
        </mxCell>
        <mxCell id="9KElYsGexBoUN2LWAdsH-3" value="nombreProvincia" style="text;strokeColor=none;fillColor=none;align=left;verticalAlign=middle;spacingLeft=4;spacingRight=4;overflow=hidden;points=[[0,0.5],[1,0.5]];portConstraint=eastwest;rotatable=0;whiteSpace=wrap;html=1;" vertex="1" parent="9KElYsGexBoUN2LWAdsH-1">
          <mxGeometry y="60" width="160" height="30" as="geometry" />
        </mxCell>
        <mxCell id="9KElYsGexBoUN2LWAdsH-5" value="&lt;div&gt;cargo&lt;/div&gt;" style="swimlane;fontStyle=0;childLayout=stackLayout;horizontal=1;startSize=30;horizontalStack=0;resizeParent=1;resizeParentMax=0;resizeLast=0;collapsible=1;marginBottom=0;whiteSpace=wrap;html=1;" vertex="1" parent="1">
          <mxGeometry x="20" y="250" width="160" height="90" as="geometry" />
        </mxCell>
        <mxCell id="9KElYsGexBoUN2LWAdsH-6" value="&lt;u&gt;codigoCargo &amp;nbsp;&amp;nbsp;&amp;nbsp;&amp;nbsp;&amp;nbsp; &amp;lt;pk&amp;gt;&lt;/u&gt;" style="text;strokeColor=none;fillColor=none;align=left;verticalAlign=middle;spacingLeft=4;spacingRight=4;overflow=hidden;points=[[0,0.5],[1,0.5]];portConstraint=eastwest;rotatable=0;whiteSpace=wrap;html=1;" vertex="1" parent="9KElYsGexBoUN2LWAdsH-5">
          <mxGeometry y="30" width="160" height="30" as="geometry" />
        </mxCell>
        <mxCell id="9KElYsGexBoUN2LWAdsH-7" value="nombreCargo" style="text;strokeColor=none;fillColor=none;align=left;verticalAlign=middle;spacingLeft=4;spacingRight=4;overflow=hidden;points=[[0,0.5],[1,0.5]];portConstraint=eastwest;rotatable=0;whiteSpace=wrap;html=1;" vertex="1" parent="9KElYsGexBoUN2LWAdsH-5">
          <mxGeometry y="60" width="160" height="30" as="geometry" />
        </mxCell>
        <mxCell id="9KElYsGexBoUN2LWAdsH-8" value="departamento" style="swimlane;fontStyle=0;childLayout=stackLayout;horizontal=1;startSize=30;horizontalStack=0;resizeParent=1;resizeParentMax=0;resizeLast=0;collapsible=1;marginBottom=0;whiteSpace=wrap;html=1;" vertex="1" parent="1">
          <mxGeometry x="290" y="700" width="160" height="90" as="geometry" />
        </mxCell>
        <mxCell id="9KElYsGexBoUN2LWAdsH-9" value="&lt;u&gt;codigoDepto &amp;nbsp;&amp;nbsp;&amp;nbsp;&amp;nbsp;&amp;nbsp; &amp;lt;pk&amp;gt;&lt;/u&gt;" style="text;strokeColor=none;fillColor=none;align=left;verticalAlign=middle;spacingLeft=4;spacingRight=4;overflow=hidden;points=[[0,0.5],[1,0.5]];portConstraint=eastwest;rotatable=0;whiteSpace=wrap;html=1;" vertex="1" parent="9KElYsGexBoUN2LWAdsH-8">
          <mxGeometry y="30" width="160" height="30" as="geometry" />
        </mxCell>
        <mxCell id="9KElYsGexBoUN2LWAdsH-10" value="&lt;div&gt;nombreDepto&lt;/div&gt;" style="text;strokeColor=none;fillColor=none;align=left;verticalAlign=middle;spacingLeft=4;spacingRight=4;overflow=hidden;points=[[0,0.5],[1,0.5]];portConstraint=eastwest;rotatable=0;whiteSpace=wrap;html=1;" vertex="1" parent="9KElYsGexBoUN2LWAdsH-8">
          <mxGeometry y="60" width="160" height="30" as="geometry" />
        </mxCell>
        <mxCell id="9KElYsGexBoUN2LWAdsH-16" style="edgeStyle=orthogonalEdgeStyle;rounded=0;orthogonalLoop=1;jettySize=auto;html=1;entryX=1;entryY=0.5;entryDx=0;entryDy=0;" edge="1" parent="1" source="9KElYsGexBoUN2LWAdsH-11" target="9KElYsGexBoUN2LWAdsH-2">
          <mxGeometry relative="1" as="geometry" />
        </mxCell>
        <mxCell id="9KElYsGexBoUN2LWAdsH-11" value="localidad" style="swimlane;fontStyle=0;childLayout=stackLayout;horizontal=1;startSize=30;horizontalStack=0;resizeParent=1;resizeParentMax=0;resizeLast=0;collapsible=1;marginBottom=0;whiteSpace=wrap;html=1;" vertex="1" parent="1">
          <mxGeometry x="290" y="30" width="160" height="150" as="geometry" />
        </mxCell>
        <mxCell id="9KElYsGexBoUN2LWAdsH-12" value="&lt;u&gt;codigoLocalidad &amp;nbsp;&amp;nbsp;&amp;nbsp;&amp;nbsp;&amp;nbsp; &amp;lt;pk&amp;gt;&lt;/u&gt;" style="text;strokeColor=none;fillColor=none;align=left;verticalAlign=middle;spacingLeft=4;spacingRight=4;overflow=hidden;points=[[0,0.5],[1,0.5]];portConstraint=eastwest;rotatable=0;whiteSpace=wrap;html=1;" vertex="1" parent="9KElYsGexBoUN2LWAdsH-11">
          <mxGeometry y="30" width="160" height="30" as="geometry" />
        </mxCell>
        <mxCell id="9KElYsGexBoUN2LWAdsH-111" value="&lt;u&gt;codigoProvincia&amp;nbsp;&amp;nbsp;&amp;nbsp;&amp;nbsp;&amp;nbsp;&amp;nbsp; &amp;lt;pk,fk&amp;gt;&lt;/u&gt;" style="text;strokeColor=none;fillColor=none;align=left;verticalAlign=middle;spacingLeft=4;spacingRight=4;overflow=hidden;points=[[0,0.5],[1,0.5]];portConstraint=eastwest;rotatable=0;whiteSpace=wrap;html=1;" vertex="1" parent="9KElYsGexBoUN2LWAdsH-11">
          <mxGeometry y="60" width="160" height="30" as="geometry" />
        </mxCell>
        <mxCell id="9KElYsGexBoUN2LWAdsH-14" value="codigoPostal" style="text;strokeColor=none;fillColor=none;align=left;verticalAlign=middle;spacingLeft=4;spacingRight=4;overflow=hidden;points=[[0,0.5],[1,0.5]];portConstraint=eastwest;rotatable=0;whiteSpace=wrap;html=1;" vertex="1" parent="9KElYsGexBoUN2LWAdsH-11">
          <mxGeometry y="90" width="160" height="30" as="geometry" />
        </mxCell>
        <mxCell id="9KElYsGexBoUN2LWAdsH-13" value="nombreLocalidad" style="text;strokeColor=none;fillColor=none;align=left;verticalAlign=middle;spacingLeft=4;spacingRight=4;overflow=hidden;points=[[0,0.5],[1,0.5]];portConstraint=eastwest;rotatable=0;whiteSpace=wrap;html=1;" vertex="1" parent="9KElYsGexBoUN2LWAdsH-11">
          <mxGeometry y="120" width="160" height="30" as="geometry" />
        </mxCell>
        <mxCell id="9KElYsGexBoUN2LWAdsH-22" value="persona" style="swimlane;fontStyle=0;childLayout=stackLayout;horizontal=1;startSize=30;horizontalStack=0;resizeParent=1;resizeParentMax=0;resizeLast=0;collapsible=1;marginBottom=0;whiteSpace=wrap;html=1;" vertex="1" parent="1">
          <mxGeometry x="530" y="30" width="160" height="330" as="geometry" />
        </mxCell>
        <mxCell id="9KElYsGexBoUN2LWAdsH-23" value="&lt;u&gt;tipoDocumento &amp;nbsp;&amp;nbsp;&amp;nbsp;&amp;nbsp;&amp;nbsp; &amp;lt;pk&amp;gt;&lt;/u&gt;" style="text;strokeColor=none;fillColor=none;align=left;verticalAlign=middle;spacingLeft=4;spacingRight=4;overflow=hidden;points=[[0,0.5],[1,0.5]];portConstraint=eastwest;rotatable=0;whiteSpace=wrap;html=1;" vertex="1" parent="9KElYsGexBoUN2LWAdsH-22">
          <mxGeometry y="30" width="160" height="30" as="geometry" />
        </mxCell>
        <mxCell id="9KElYsGexBoUN2LWAdsH-24" value="&lt;u&gt;numeroDocumento&amp;nbsp; &amp;lt;pk&amp;gt;&lt;/u&gt;" style="text;strokeColor=none;fillColor=none;align=left;verticalAlign=middle;spacingLeft=4;spacingRight=4;overflow=hidden;points=[[0,0.5],[1,0.5]];portConstraint=eastwest;rotatable=0;whiteSpace=wrap;html=1;" vertex="1" parent="9KElYsGexBoUN2LWAdsH-22">
          <mxGeometry y="60" width="160" height="30" as="geometry" />
        </mxCell>
        <mxCell id="9KElYsGexBoUN2LWAdsH-33" value="codigoLocalidadN&amp;nbsp;&amp;nbsp;&amp;nbsp; &amp;lt;fk1&amp;gt;" style="text;strokeColor=none;fillColor=none;align=left;verticalAlign=middle;spacingLeft=4;spacingRight=4;overflow=hidden;points=[[0,0.5],[1,0.5]];portConstraint=eastwest;rotatable=0;whiteSpace=wrap;html=1;" vertex="1" parent="9KElYsGexBoUN2LWAdsH-22">
          <mxGeometry y="90" width="160" height="30" as="geometry" />
        </mxCell>
        <mxCell id="9KElYsGexBoUN2LWAdsH-34" value="codigoLocalidadV&amp;nbsp;&amp;nbsp;&amp;nbsp; &amp;lt;fk2&amp;gt;" style="text;strokeColor=none;fillColor=none;align=left;verticalAlign=middle;spacingLeft=4;spacingRight=4;overflow=hidden;points=[[0,0.5],[1,0.5]];portConstraint=eastwest;rotatable=0;whiteSpace=wrap;html=1;" vertex="1" parent="9KElYsGexBoUN2LWAdsH-22">
          <mxGeometry y="120" width="160" height="30" as="geometry" />
        </mxCell>
        <mxCell id="9KElYsGexBoUN2LWAdsH-112" value="codigoProvinciaN &amp;nbsp;&amp;nbsp;&amp;nbsp; &amp;lt;fk1&amp;gt;" style="text;strokeColor=none;fillColor=none;align=left;verticalAlign=middle;spacingLeft=4;spacingRight=4;overflow=hidden;points=[[0,0.5],[1,0.5]];portConstraint=eastwest;rotatable=0;whiteSpace=wrap;html=1;" vertex="1" parent="9KElYsGexBoUN2LWAdsH-22">
          <mxGeometry y="150" width="160" height="30" as="geometry" />
        </mxCell>
        <mxCell id="9KElYsGexBoUN2LWAdsH-113" value="codigoProvinciaV&amp;nbsp;&amp;nbsp;&amp;nbsp; &amp;lt;fk2&amp;gt;" style="text;strokeColor=none;fillColor=none;align=left;verticalAlign=middle;spacingLeft=4;spacingRight=4;overflow=hidden;points=[[0,0.5],[1,0.5]];portConstraint=eastwest;rotatable=0;whiteSpace=wrap;html=1;" vertex="1" parent="9KElYsGexBoUN2LWAdsH-22">
          <mxGeometry y="180" width="160" height="30" as="geometry" />
        </mxCell>
        <mxCell id="9KElYsGexBoUN2LWAdsH-31" value="apellido" style="text;strokeColor=none;fillColor=none;align=left;verticalAlign=middle;spacingLeft=4;spacingRight=4;overflow=hidden;points=[[0,0.5],[1,0.5]];portConstraint=eastwest;rotatable=0;whiteSpace=wrap;html=1;" vertex="1" parent="9KElYsGexBoUN2LWAdsH-22">
          <mxGeometry y="210" width="160" height="30" as="geometry" />
        </mxCell>
        <mxCell id="9KElYsGexBoUN2LWAdsH-32" value="nombre" style="text;strokeColor=none;fillColor=none;align=left;verticalAlign=middle;spacingLeft=4;spacingRight=4;overflow=hidden;points=[[0,0.5],[1,0.5]];portConstraint=eastwest;rotatable=0;whiteSpace=wrap;html=1;" vertex="1" parent="9KElYsGexBoUN2LWAdsH-22">
          <mxGeometry y="240" width="160" height="30" as="geometry" />
        </mxCell>
        <mxCell id="9KElYsGexBoUN2LWAdsH-30" value="fechaNacimiento" style="text;strokeColor=none;fillColor=none;align=left;verticalAlign=middle;spacingLeft=4;spacingRight=4;overflow=hidden;points=[[0,0.5],[1,0.5]];portConstraint=eastwest;rotatable=0;whiteSpace=wrap;html=1;" vertex="1" parent="9KElYsGexBoUN2LWAdsH-22">
          <mxGeometry y="270" width="160" height="30" as="geometry" />
        </mxCell>
        <mxCell id="9KElYsGexBoUN2LWAdsH-25" value="&lt;div&gt;domicilio&lt;/div&gt;" style="text;strokeColor=none;fillColor=none;align=left;verticalAlign=middle;spacingLeft=4;spacingRight=4;overflow=hidden;points=[[0,0.5],[1,0.5]];portConstraint=eastwest;rotatable=0;whiteSpace=wrap;html=1;" vertex="1" parent="9KElYsGexBoUN2LWAdsH-22">
          <mxGeometry y="300" width="160" height="30" as="geometry" />
        </mxCell>
        <mxCell id="9KElYsGexBoUN2LWAdsH-38" style="edgeStyle=orthogonalEdgeStyle;rounded=0;orthogonalLoop=1;jettySize=auto;html=1;entryX=1;entryY=0.5;entryDx=0;entryDy=0;" edge="1" parent="1" source="9KElYsGexBoUN2LWAdsH-24" target="9KElYsGexBoUN2LWAdsH-14">
          <mxGeometry relative="1" as="geometry" />
        </mxCell>
        <mxCell id="9KElYsGexBoUN2LWAdsH-51" value="vive en" style="edgeLabel;html=1;align=center;verticalAlign=middle;resizable=0;points=[];" vertex="1" connectable="0" parent="9KElYsGexBoUN2LWAdsH-38">
          <mxGeometry x="-0.2286" relative="1" as="geometry">
            <mxPoint as="offset" />
          </mxGeometry>
        </mxCell>
        <mxCell id="9KElYsGexBoUN2LWAdsH-46" style="edgeStyle=orthogonalEdgeStyle;rounded=0;orthogonalLoop=1;jettySize=auto;html=1;entryX=0.524;entryY=1.022;entryDx=0;entryDy=0;entryPerimeter=0;" edge="1" parent="1" target="9KElYsGexBoUN2LWAdsH-25">
          <mxGeometry relative="1" as="geometry">
            <mxPoint x="591" y="310" as="targetPoint" />
            <mxPoint x="451" y="505" as="sourcePoint" />
            <Array as="points">
              <mxPoint x="540" y="505" />
              <mxPoint x="540" y="433" />
              <mxPoint x="614" y="433" />
            </Array>
          </mxGeometry>
        </mxCell>
        <mxCell id="9KElYsGexBoUN2LWAdsH-58" value="&lt;div&gt;pk&lt;/div&gt;" style="edgeLabel;html=1;align=center;verticalAlign=middle;resizable=0;points=[];" vertex="1" connectable="0" parent="9KElYsGexBoUN2LWAdsH-46">
          <mxGeometry x="0.4337" relative="1" as="geometry">
            <mxPoint as="offset" />
          </mxGeometry>
        </mxCell>
        <mxCell id="9KElYsGexBoUN2LWAdsH-39" value="docente" style="swimlane;fontStyle=0;childLayout=stackLayout;horizontal=1;startSize=30;horizontalStack=0;resizeParent=1;resizeParentMax=0;resizeLast=0;collapsible=1;marginBottom=0;whiteSpace=wrap;html=1;" vertex="1" parent="1">
          <mxGeometry x="290" y="430" width="160" height="150" as="geometry">
            <mxRectangle x="290" y="430" width="80" height="30" as="alternateBounds" />
          </mxGeometry>
        </mxCell>
        <mxCell id="9KElYsGexBoUN2LWAdsH-56" value="&lt;u&gt;tipoDocumento &amp;nbsp;&amp;nbsp; &amp;nbsp;&amp;nbsp; &amp;lt;pk,fk&amp;gt;&lt;/u&gt;" style="text;strokeColor=none;fillColor=none;align=left;verticalAlign=middle;spacingLeft=4;spacingRight=4;overflow=hidden;points=[[0,0.5],[1,0.5]];portConstraint=eastwest;rotatable=0;whiteSpace=wrap;html=1;" vertex="1" parent="9KElYsGexBoUN2LWAdsH-39">
          <mxGeometry y="30" width="160" height="30" as="geometry" />
        </mxCell>
        <mxCell id="9KElYsGexBoUN2LWAdsH-57" value="&lt;u&gt;numeroDocumento &amp;lt;pk,fk&amp;gt;&lt;/u&gt;" style="text;strokeColor=none;fillColor=none;align=left;verticalAlign=middle;spacingLeft=4;spacingRight=4;overflow=hidden;points=[[0,0.5],[1,0.5]];portConstraint=eastwest;rotatable=0;whiteSpace=wrap;html=1;" vertex="1" parent="9KElYsGexBoUN2LWAdsH-39">
          <mxGeometry y="60" width="160" height="30" as="geometry" />
        </mxCell>
        <mxCell id="9KElYsGexBoUN2LWAdsH-40" value="legajoDocente &amp;nbsp;&amp;nbsp;&amp;nbsp; " style="text;strokeColor=none;fillColor=none;align=left;verticalAlign=middle;spacingLeft=4;spacingRight=4;overflow=hidden;points=[[0,0.5],[1,0.5]];portConstraint=eastwest;rotatable=0;whiteSpace=wrap;html=1;" vertex="1" parent="9KElYsGexBoUN2LWAdsH-39">
          <mxGeometry y="90" width="160" height="30" as="geometry" />
        </mxCell>
        <mxCell id="9KElYsGexBoUN2LWAdsH-41" value="ingresoUNL" style="text;strokeColor=none;fillColor=none;align=left;verticalAlign=middle;spacingLeft=4;spacingRight=4;overflow=hidden;points=[[0,0.5],[1,0.5]];portConstraint=eastwest;rotatable=0;whiteSpace=wrap;html=1;" vertex="1" parent="9KElYsGexBoUN2LWAdsH-39">
          <mxGeometry y="120" width="160" height="30" as="geometry" />
        </mxCell>
        <mxCell id="9KElYsGexBoUN2LWAdsH-42" value="alumno" style="swimlane;fontStyle=0;childLayout=stackLayout;horizontal=1;startSize=30;horizontalStack=0;resizeParent=1;resizeParentMax=0;resizeLast=0;collapsible=1;marginBottom=0;whiteSpace=wrap;html=1;" vertex="1" parent="1">
          <mxGeometry x="840" y="180" width="160" height="150" as="geometry" />
        </mxCell>
        <mxCell id="9KElYsGexBoUN2LWAdsH-43" value="&lt;u&gt;legajoAlumno &amp;nbsp;&amp;nbsp;&amp;nbsp;&amp;nbsp;&amp;nbsp; &amp;lt;pk&amp;gt;&lt;/u&gt;" style="text;strokeColor=none;fillColor=none;align=left;verticalAlign=middle;spacingLeft=4;spacingRight=4;overflow=hidden;points=[[0,0.5],[1,0.5]];portConstraint=eastwest;rotatable=0;whiteSpace=wrap;html=1;" vertex="1" parent="9KElYsGexBoUN2LWAdsH-42">
          <mxGeometry y="30" width="160" height="30" as="geometry" />
        </mxCell>
        <mxCell id="9KElYsGexBoUN2LWAdsH-47" value="fechaIngreso" style="text;strokeColor=none;fillColor=none;align=left;verticalAlign=middle;spacingLeft=4;spacingRight=4;overflow=hidden;points=[[0,0.5],[1,0.5]];portConstraint=eastwest;rotatable=0;whiteSpace=wrap;html=1;" vertex="1" parent="9KElYsGexBoUN2LWAdsH-42">
          <mxGeometry y="60" width="160" height="30" as="geometry" />
        </mxCell>
        <mxCell id="9KElYsGexBoUN2LWAdsH-44" value="tipoDocumento&amp;nbsp;&amp;nbsp;&amp;nbsp;&amp;nbsp;&amp;nbsp;&amp;nbsp;&amp;nbsp;&amp;nbsp; &amp;lt;fk1&amp;gt;" style="text;strokeColor=none;fillColor=none;align=left;verticalAlign=middle;spacingLeft=4;spacingRight=4;overflow=hidden;points=[[0,0.5],[1,0.5]];portConstraint=eastwest;rotatable=0;whiteSpace=wrap;html=1;" vertex="1" parent="9KElYsGexBoUN2LWAdsH-42">
          <mxGeometry y="90" width="160" height="30" as="geometry" />
        </mxCell>
        <mxCell id="9KElYsGexBoUN2LWAdsH-48" value="numeroDocumento&amp;nbsp; &amp;lt;fk1&amp;gt;" style="text;strokeColor=none;fillColor=none;align=left;verticalAlign=middle;spacingLeft=4;spacingRight=4;overflow=hidden;points=[[0,0.5],[1,0.5]];portConstraint=eastwest;rotatable=0;whiteSpace=wrap;html=1;" vertex="1" parent="9KElYsGexBoUN2LWAdsH-42">
          <mxGeometry y="120" width="160" height="30" as="geometry" />
        </mxCell>
        <mxCell id="9KElYsGexBoUN2LWAdsH-45" style="edgeStyle=orthogonalEdgeStyle;rounded=0;orthogonalLoop=1;jettySize=auto;html=1;entryX=1;entryY=0.5;entryDx=0;entryDy=0;" edge="1" parent="1" source="9KElYsGexBoUN2LWAdsH-42" target="9KElYsGexBoUN2LWAdsH-32">
          <mxGeometry relative="1" as="geometry" />
        </mxCell>
        <mxCell id="9KElYsGexBoUN2LWAdsH-52" style="edgeStyle=orthogonalEdgeStyle;rounded=0;orthogonalLoop=1;jettySize=auto;html=1;entryX=1;entryY=0.5;entryDx=0;entryDy=0;" edge="1" parent="1" source="9KElYsGexBoUN2LWAdsH-34" target="9KElYsGexBoUN2LWAdsH-13">
          <mxGeometry relative="1" as="geometry" />
        </mxCell>
        <mxCell id="9KElYsGexBoUN2LWAdsH-53" value="nacido en" style="edgeLabel;html=1;align=center;verticalAlign=middle;resizable=0;points=[];" vertex="1" connectable="0" parent="9KElYsGexBoUN2LWAdsH-52">
          <mxGeometry x="0.0429" relative="1" as="geometry">
            <mxPoint as="offset" />
          </mxGeometry>
        </mxCell>
        <mxCell id="9KElYsGexBoUN2LWAdsH-65" style="edgeStyle=orthogonalEdgeStyle;rounded=0;orthogonalLoop=1;jettySize=auto;html=1;entryX=0;entryY=0.5;entryDx=0;entryDy=0;" edge="1" parent="1" source="9KElYsGexBoUN2LWAdsH-62" target="9KElYsGexBoUN2LWAdsH-56">
          <mxGeometry relative="1" as="geometry" />
        </mxCell>
        <mxCell id="9KElYsGexBoUN2LWAdsH-70" style="edgeStyle=orthogonalEdgeStyle;rounded=0;orthogonalLoop=1;jettySize=auto;html=1;" edge="1" parent="1" source="9KElYsGexBoUN2LWAdsH-62">
          <mxGeometry relative="1" as="geometry">
            <mxPoint x="100" y="340" as="targetPoint" />
          </mxGeometry>
        </mxCell>
        <mxCell id="9KElYsGexBoUN2LWAdsH-76" style="edgeStyle=orthogonalEdgeStyle;rounded=0;orthogonalLoop=1;jettySize=auto;html=1;entryX=0.5;entryY=0;entryDx=0;entryDy=0;" edge="1" parent="1" source="9KElYsGexBoUN2LWAdsH-62" target="9KElYsGexBoUN2LWAdsH-72">
          <mxGeometry relative="1" as="geometry" />
        </mxCell>
        <mxCell id="9KElYsGexBoUN2LWAdsH-62" value="historialCargo" style="swimlane;fontStyle=0;childLayout=stackLayout;horizontal=1;startSize=30;horizontalStack=0;resizeParent=1;resizeParentMax=0;resizeLast=0;collapsible=1;marginBottom=0;whiteSpace=wrap;html=1;" vertex="1" parent="1">
          <mxGeometry x="10" y="430" width="170" height="210" as="geometry" />
        </mxCell>
        <mxCell id="9KElYsGexBoUN2LWAdsH-63" value="&lt;u&gt;fechaDesde &amp;nbsp;&amp;nbsp;&amp;nbsp;&amp;nbsp;&amp;nbsp;&amp;nbsp;&amp;nbsp;&amp;nbsp;&amp;nbsp;&amp;nbsp;&amp;nbsp;&amp;nbsp; &amp;lt;pk&amp;gt;&lt;/u&gt;" style="text;strokeColor=none;fillColor=none;align=left;verticalAlign=middle;spacingLeft=4;spacingRight=4;overflow=hidden;points=[[0,0.5],[1,0.5]];portConstraint=eastwest;rotatable=0;whiteSpace=wrap;html=1;" vertex="1" parent="9KElYsGexBoUN2LWAdsH-62">
          <mxGeometry y="30" width="170" height="30" as="geometry" />
        </mxCell>
        <mxCell id="9KElYsGexBoUN2LWAdsH-67" value="&lt;u&gt;tipoDocumento&amp;nbsp;&amp;nbsp;&amp;nbsp;&amp;nbsp;&amp;nbsp;&amp;nbsp; &amp;lt;pk,fk1&amp;gt;&lt;/u&gt;" style="text;strokeColor=none;fillColor=none;align=left;verticalAlign=middle;spacingLeft=4;spacingRight=4;overflow=hidden;points=[[0,0.5],[1,0.5]];portConstraint=eastwest;rotatable=0;whiteSpace=wrap;html=1;" vertex="1" parent="9KElYsGexBoUN2LWAdsH-62">
          <mxGeometry y="60" width="170" height="30" as="geometry" />
        </mxCell>
        <mxCell id="9KElYsGexBoUN2LWAdsH-66" value="&lt;u&gt;numeroDocumento &amp;lt;pk,fk1&amp;gt;&lt;/u&gt;" style="text;strokeColor=none;fillColor=none;align=left;verticalAlign=middle;spacingLeft=4;spacingRight=4;overflow=hidden;points=[[0,0.5],[1,0.5]];portConstraint=eastwest;rotatable=0;whiteSpace=wrap;html=1;" vertex="1" parent="9KElYsGexBoUN2LWAdsH-62">
          <mxGeometry y="90" width="170" height="30" as="geometry" />
        </mxCell>
        <mxCell id="9KElYsGexBoUN2LWAdsH-75" value="&lt;u&gt;codigoMateria &amp;nbsp;&amp;nbsp;&amp;nbsp;&amp;nbsp;&amp;nbsp;&amp;nbsp;&amp;nbsp;&amp;nbsp; &amp;lt;pk,fk2&amp;gt;&lt;/u&gt;" style="text;strokeColor=none;fillColor=none;align=left;verticalAlign=middle;spacingLeft=4;spacingRight=4;overflow=hidden;points=[[0,0.5],[1,0.5]];portConstraint=eastwest;rotatable=0;whiteSpace=wrap;html=1;" vertex="1" parent="9KElYsGexBoUN2LWAdsH-62">
          <mxGeometry y="120" width="170" height="30" as="geometry" />
        </mxCell>
        <mxCell id="9KElYsGexBoUN2LWAdsH-69" value="codigoCargo &amp;nbsp; &amp;nbsp; &amp;nbsp; &amp;nbsp; &amp;nbsp; &amp;nbsp; &amp;lt;fk3&amp;gt;" style="text;strokeColor=none;fillColor=none;align=left;verticalAlign=middle;spacingLeft=4;spacingRight=4;overflow=hidden;points=[[0,0.5],[1,0.5]];portConstraint=eastwest;rotatable=0;whiteSpace=wrap;html=1;" vertex="1" parent="9KElYsGexBoUN2LWAdsH-62">
          <mxGeometry y="150" width="170" height="30" as="geometry" />
        </mxCell>
        <mxCell id="9KElYsGexBoUN2LWAdsH-64" value="fechaHasta" style="text;strokeColor=none;fillColor=none;align=left;verticalAlign=middle;spacingLeft=4;spacingRight=4;overflow=hidden;points=[[0,0.5],[1,0.5]];portConstraint=eastwest;rotatable=0;whiteSpace=wrap;html=1;" vertex="1" parent="9KElYsGexBoUN2LWAdsH-62">
          <mxGeometry y="180" width="170" height="30" as="geometry" />
        </mxCell>
        <mxCell id="9KElYsGexBoUN2LWAdsH-72" value="materia" style="swimlane;fontStyle=0;childLayout=stackLayout;horizontal=1;startSize=30;horizontalStack=0;resizeParent=1;resizeParentMax=0;resizeLast=0;collapsible=1;marginBottom=0;whiteSpace=wrap;html=1;" vertex="1" parent="1">
          <mxGeometry x="20" y="700" width="160" height="120" as="geometry" />
        </mxCell>
        <mxCell id="9KElYsGexBoUN2LWAdsH-73" value="&lt;u&gt;codigoMateria &amp;nbsp;&amp;nbsp;&amp;nbsp;&amp;nbsp; &amp;nbsp; &amp;nbsp; &amp;nbsp; &amp;lt;pk&amp;gt;&lt;/u&gt;" style="text;strokeColor=none;fillColor=none;align=left;verticalAlign=middle;spacingLeft=4;spacingRight=4;overflow=hidden;points=[[0,0.5],[1,0.5]];portConstraint=eastwest;rotatable=0;whiteSpace=wrap;html=1;" vertex="1" parent="9KElYsGexBoUN2LWAdsH-72">
          <mxGeometry y="30" width="160" height="30" as="geometry" />
        </mxCell>
        <mxCell id="9KElYsGexBoUN2LWAdsH-79" value="codigoDepto &amp;nbsp;&amp;nbsp;&amp;nbsp;&amp;nbsp; &amp;nbsp; &amp;nbsp; &amp;nbsp; &amp;nbsp;&amp;nbsp; &amp;lt;fk1&amp;gt;" style="text;strokeColor=none;fillColor=none;align=left;verticalAlign=middle;spacingLeft=4;spacingRight=4;overflow=hidden;points=[[0,0.5],[1,0.5]];portConstraint=eastwest;rotatable=0;whiteSpace=wrap;html=1;" vertex="1" parent="9KElYsGexBoUN2LWAdsH-72">
          <mxGeometry y="60" width="160" height="30" as="geometry" />
        </mxCell>
        <mxCell id="9KElYsGexBoUN2LWAdsH-74" value="&lt;div&gt;nombreMateria&lt;/div&gt;" style="text;strokeColor=none;fillColor=none;align=left;verticalAlign=middle;spacingLeft=4;spacingRight=4;overflow=hidden;points=[[0,0.5],[1,0.5]];portConstraint=eastwest;rotatable=0;whiteSpace=wrap;html=1;" vertex="1" parent="9KElYsGexBoUN2LWAdsH-72">
          <mxGeometry y="90" width="160" height="30" as="geometry" />
        </mxCell>
        <mxCell id="9KElYsGexBoUN2LWAdsH-78" style="edgeStyle=orthogonalEdgeStyle;rounded=0;orthogonalLoop=1;jettySize=auto;html=1;entryX=0;entryY=0.5;entryDx=0;entryDy=0;" edge="1" parent="1" source="9KElYsGexBoUN2LWAdsH-73" target="9KElYsGexBoUN2LWAdsH-8">
          <mxGeometry relative="1" as="geometry" />
        </mxCell>
        <mxCell id="9KElYsGexBoUN2LWAdsH-84" value="cursado" style="swimlane;fontStyle=0;childLayout=stackLayout;horizontal=1;startSize=30;horizontalStack=0;resizeParent=1;resizeParentMax=0;resizeLast=0;collapsible=1;marginBottom=0;whiteSpace=wrap;html=1;" vertex="1" parent="1">
          <mxGeometry x="720" y="680" width="160" height="150" as="geometry" />
        </mxCell>
        <mxCell id="9KElYsGexBoUN2LWAdsH-85" value="&lt;u&gt;numeroComision &amp;nbsp;&amp;nbsp;&amp;nbsp;&amp;nbsp;&amp;nbsp; &amp;lt;pk&amp;gt;&lt;/u&gt;" style="text;strokeColor=none;fillColor=none;align=left;verticalAlign=middle;spacingLeft=4;spacingRight=4;overflow=hidden;points=[[0,0.5],[1,0.5]];portConstraint=eastwest;rotatable=0;whiteSpace=wrap;html=1;" vertex="1" parent="9KElYsGexBoUN2LWAdsH-84">
          <mxGeometry y="30" width="160" height="30" as="geometry" />
        </mxCell>
        <mxCell id="9KElYsGexBoUN2LWAdsH-116" value="&lt;u&gt;codigoMateria &amp;nbsp;&amp;nbsp;&amp;nbsp;&amp;nbsp; &amp;nbsp; &amp;nbsp; &amp;lt;pk,fk&amp;gt;&lt;/u&gt;" style="text;strokeColor=none;fillColor=none;align=left;verticalAlign=middle;spacingLeft=4;spacingRight=4;overflow=hidden;points=[[0,0.5],[1,0.5]];portConstraint=eastwest;rotatable=0;whiteSpace=wrap;html=1;" vertex="1" parent="9KElYsGexBoUN2LWAdsH-84">
          <mxGeometry y="60" width="160" height="30" as="geometry" />
        </mxCell>
        <mxCell id="9KElYsGexBoUN2LWAdsH-86" value="fechaInicio" style="text;strokeColor=none;fillColor=none;align=left;verticalAlign=middle;spacingLeft=4;spacingRight=4;overflow=hidden;points=[[0,0.5],[1,0.5]];portConstraint=eastwest;rotatable=0;whiteSpace=wrap;html=1;" vertex="1" parent="9KElYsGexBoUN2LWAdsH-84">
          <mxGeometry y="90" width="160" height="30" as="geometry" />
        </mxCell>
        <mxCell id="9KElYsGexBoUN2LWAdsH-87" value="descripcionComision" style="text;strokeColor=none;fillColor=none;align=left;verticalAlign=middle;spacingLeft=4;spacingRight=4;overflow=hidden;points=[[0,0.5],[1,0.5]];portConstraint=eastwest;rotatable=0;whiteSpace=wrap;html=1;" vertex="1" parent="9KElYsGexBoUN2LWAdsH-84">
          <mxGeometry y="120" width="160" height="30" as="geometry" />
        </mxCell>
        <mxCell id="9KElYsGexBoUN2LWAdsH-90" value="docenteCursado" style="swimlane;fontStyle=0;childLayout=stackLayout;horizontal=1;startSize=30;horizontalStack=0;resizeParent=1;resizeParentMax=0;resizeLast=0;collapsible=1;marginBottom=0;whiteSpace=wrap;html=1;" vertex="1" parent="1">
          <mxGeometry x="520" y="600" width="160" height="210" as="geometry" />
        </mxCell>
        <mxCell id="9KElYsGexBoUN2LWAdsH-105" style="edgeStyle=orthogonalEdgeStyle;rounded=0;orthogonalLoop=1;jettySize=auto;html=1;" edge="1" parent="9KElYsGexBoUN2LWAdsH-90" source="9KElYsGexBoUN2LWAdsH-91">
          <mxGeometry relative="1" as="geometry">
            <mxPoint x="-160" y="-10" as="targetPoint" />
          </mxGeometry>
        </mxCell>
        <mxCell id="9KElYsGexBoUN2LWAdsH-91" value="&lt;u&gt;tipoDocumento &amp;nbsp;&amp;nbsp;&amp;nbsp; &amp;lt;pk,fk1&amp;gt;&lt;/u&gt;" style="text;strokeColor=none;fillColor=none;align=left;verticalAlign=middle;spacingLeft=4;spacingRight=4;overflow=hidden;points=[[0,0.5],[1,0.5]];portConstraint=eastwest;rotatable=0;whiteSpace=wrap;html=1;" vertex="1" parent="9KElYsGexBoUN2LWAdsH-90">
          <mxGeometry y="30" width="160" height="30" as="geometry" />
        </mxCell>
        <mxCell id="9KElYsGexBoUN2LWAdsH-104" value="&lt;u&gt;numeroDocumento&lt;/u&gt;&lt;u&gt;&amp;lt;pk,fk1&amp;gt;&lt;/u&gt;" style="text;strokeColor=none;fillColor=none;align=left;verticalAlign=middle;spacingLeft=4;spacingRight=4;overflow=hidden;points=[[0,0.5],[1,0.5]];portConstraint=eastwest;rotatable=0;whiteSpace=wrap;html=1;" vertex="1" parent="9KElYsGexBoUN2LWAdsH-90">
          <mxGeometry y="60" width="160" height="30" as="geometry" />
        </mxCell>
        <mxCell id="9KElYsGexBoUN2LWAdsH-108" value="&lt;u&gt;numeroComision &amp;nbsp; &lt;/u&gt;&lt;u&gt; &amp;lt;pk,fk2&amp;gt;&lt;/u&gt;" style="text;strokeColor=none;fillColor=none;align=left;verticalAlign=middle;spacingLeft=4;spacingRight=4;overflow=hidden;points=[[0,0.5],[1,0.5]];portConstraint=eastwest;rotatable=0;whiteSpace=wrap;html=1;" vertex="1" parent="9KElYsGexBoUN2LWAdsH-90">
          <mxGeometry y="90" width="160" height="30" as="geometry" />
        </mxCell>
        <mxCell id="9KElYsGexBoUN2LWAdsH-118" value="&lt;u&gt;codigoMateria &amp;nbsp;&amp;nbsp;&amp;nbsp;&amp;nbsp; &amp;nbsp; &amp;lt;pk,fk2&amp;gt;&lt;/u&gt;" style="text;strokeColor=none;fillColor=none;align=left;verticalAlign=middle;spacingLeft=4;spacingRight=4;overflow=hidden;points=[[0,0.5],[1,0.5]];portConstraint=eastwest;rotatable=0;whiteSpace=wrap;html=1;" vertex="1" parent="9KElYsGexBoUN2LWAdsH-90">
          <mxGeometry y="120" width="160" height="30" as="geometry" />
        </mxCell>
        <mxCell id="9KElYsGexBoUN2LWAdsH-92" value="fechaInicio" style="text;strokeColor=none;fillColor=none;align=left;verticalAlign=middle;spacingLeft=4;spacingRight=4;overflow=hidden;points=[[0,0.5],[1,0.5]];portConstraint=eastwest;rotatable=0;whiteSpace=wrap;html=1;" vertex="1" parent="9KElYsGexBoUN2LWAdsH-90">
          <mxGeometry y="150" width="160" height="30" as="geometry" />
        </mxCell>
        <mxCell id="9KElYsGexBoUN2LWAdsH-93" value="descripcionComision" style="text;strokeColor=none;fillColor=none;align=left;verticalAlign=middle;spacingLeft=4;spacingRight=4;overflow=hidden;points=[[0,0.5],[1,0.5]];portConstraint=eastwest;rotatable=0;whiteSpace=wrap;html=1;" vertex="1" parent="9KElYsGexBoUN2LWAdsH-90">
          <mxGeometry y="180" width="160" height="30" as="geometry" />
        </mxCell>
        <mxCell id="9KElYsGexBoUN2LWAdsH-98" style="edgeStyle=orthogonalEdgeStyle;rounded=0;orthogonalLoop=1;jettySize=auto;html=1;" edge="1" parent="1" source="9KElYsGexBoUN2LWAdsH-94">
          <mxGeometry relative="1" as="geometry">
            <mxPoint x="920" y="340" as="targetPoint" />
          </mxGeometry>
        </mxCell>
        <mxCell id="9KElYsGexBoUN2LWAdsH-94" value="detalleCursado" style="swimlane;fontStyle=0;childLayout=stackLayout;horizontal=1;startSize=30;horizontalStack=0;resizeParent=1;resizeParentMax=0;resizeLast=0;collapsible=1;marginBottom=0;whiteSpace=wrap;html=1;" vertex="1" parent="1">
          <mxGeometry x="710" y="400" width="160" height="180" as="geometry" />
        </mxCell>
        <mxCell id="9KElYsGexBoUN2LWAdsH-99" value="&lt;u&gt;legajoAlumno &amp;nbsp;&amp;nbsp;&amp;nbsp;&amp;nbsp;&amp;nbsp;&amp;nbsp;&amp;nbsp; &amp;lt;pk,fk1&amp;gt;&lt;/u&gt;" style="text;strokeColor=none;fillColor=none;align=left;verticalAlign=middle;spacingLeft=4;spacingRight=4;overflow=hidden;points=[[0,0.5],[1,0.5]];portConstraint=eastwest;rotatable=0;whiteSpace=wrap;html=1;" vertex="1" parent="9KElYsGexBoUN2LWAdsH-94">
          <mxGeometry y="30" width="160" height="30" as="geometry" />
        </mxCell>
        <mxCell id="9KElYsGexBoUN2LWAdsH-102" value="&lt;u&gt;numeroComision &amp;nbsp; &amp;lt;pk,fk2&amp;gt;&lt;/u&gt;" style="text;strokeColor=none;fillColor=none;align=left;verticalAlign=middle;spacingLeft=4;spacingRight=4;overflow=hidden;points=[[0,0.5],[1,0.5]];portConstraint=eastwest;rotatable=0;whiteSpace=wrap;html=1;" vertex="1" parent="9KElYsGexBoUN2LWAdsH-94">
          <mxGeometry y="60" width="160" height="30" as="geometry" />
        </mxCell>
        <mxCell id="9KElYsGexBoUN2LWAdsH-117" value="&lt;u&gt;codigoMateria &amp;nbsp;&amp;nbsp;&amp;nbsp;&amp;nbsp; &amp;nbsp; &amp;lt;pk,fk2&amp;gt;&lt;/u&gt;" style="text;strokeColor=none;fillColor=none;align=left;verticalAlign=middle;spacingLeft=4;spacingRight=4;overflow=hidden;points=[[0,0.5],[1,0.5]];portConstraint=eastwest;rotatable=0;whiteSpace=wrap;html=1;" vertex="1" parent="9KElYsGexBoUN2LWAdsH-94">
          <mxGeometry y="90" width="160" height="30" as="geometry" />
        </mxCell>
        <mxCell id="9KElYsGexBoUN2LWAdsH-95" value="condicion &amp;nbsp;&amp;nbsp;&amp;nbsp;&amp;nbsp;&amp;nbsp; " style="text;strokeColor=none;fillColor=none;align=left;verticalAlign=middle;spacingLeft=4;spacingRight=4;overflow=hidden;points=[[0,0.5],[1,0.5]];portConstraint=eastwest;rotatable=0;whiteSpace=wrap;html=1;" vertex="1" parent="9KElYsGexBoUN2LWAdsH-94">
          <mxGeometry y="120" width="160" height="30" as="geometry" />
        </mxCell>
        <mxCell id="9KElYsGexBoUN2LWAdsH-96" value="calificacion " style="text;strokeColor=none;fillColor=none;align=left;verticalAlign=middle;spacingLeft=4;spacingRight=4;overflow=hidden;points=[[0,0.5],[1,0.5]];portConstraint=eastwest;rotatable=0;whiteSpace=wrap;html=1;" vertex="1" parent="9KElYsGexBoUN2LWAdsH-94">
          <mxGeometry y="150" width="160" height="30" as="geometry" />
        </mxCell>
        <mxCell id="9KElYsGexBoUN2LWAdsH-101" style="edgeStyle=orthogonalEdgeStyle;rounded=0;orthogonalLoop=1;jettySize=auto;html=1;entryX=0.438;entryY=0;entryDx=0;entryDy=0;entryPerimeter=0;" edge="1" parent="1" source="9KElYsGexBoUN2LWAdsH-94" target="9KElYsGexBoUN2LWAdsH-84">
          <mxGeometry relative="1" as="geometry" />
        </mxCell>
        <mxCell id="9KElYsGexBoUN2LWAdsH-107" style="edgeStyle=orthogonalEdgeStyle;rounded=0;orthogonalLoop=1;jettySize=auto;html=1;entryX=0;entryY=0.667;entryDx=0;entryDy=0;entryPerimeter=0;" edge="1" parent="1" source="9KElYsGexBoUN2LWAdsH-90" target="9KElYsGexBoUN2LWAdsH-87">
          <mxGeometry relative="1" as="geometry" />
        </mxCell>
        <mxCell id="9KElYsGexBoUN2LWAdsH-115" style="edgeStyle=orthogonalEdgeStyle;rounded=0;orthogonalLoop=1;jettySize=auto;html=1;entryX=0.495;entryY=1.067;entryDx=0;entryDy=0;entryPerimeter=0;" edge="1" parent="1" source="9KElYsGexBoUN2LWAdsH-87" target="9KElYsGexBoUN2LWAdsH-74">
          <mxGeometry relative="1" as="geometry">
            <mxPoint x="100" y="830" as="targetPoint" />
            <Array as="points">
              <mxPoint x="800" y="880" />
              <mxPoint x="99" y="880" />
            </Array>
          </mxGeometry>
        </mxCell>
      </root>
    </mxGraphModel>
  </diagram>
</mxfile>
